<?xml version="1.0" encoding="UTF-8" ?>
<!DOCTYPE svg PUBLIC "-//W3C//DTD SVG 1.1//EN" "http://www.w3.org/Graphics/SVG/1.1/DTD/svg11.dtd">
<svg width="283pt" height="278pt" viewBox="0 0 283 278" version="1.1" xmlns="http://www.w3.org/2000/svg">
<g id="#002a45ff">
<path fill="#002a45" opacity="1.00" d=" M 88.31 14.33 C 105.02 7.59 122.98 3.97 141.00 3.74 C 165.45 3.78 189.94 10.36 210.78 23.24 C 214.60 25.40 217.93 28.35 221.88 30.30 C 215.88 36.36 209.80 42.34 203.53 48.11 C 196.12 42.29 187.31 38.76 178.65 35.26 C 168.82 31.79 158.51 29.31 148.05 29.04 C 147.93 32.64 147.90 36.23 147.86 39.83 C 143.65 39.82 139.45 39.82 135.24 39.80 C 135.33 36.21 135.32 32.61 135.17 29.02 C 115.12 29.75 96.00 37.43 78.79 47.32 C 72.05 41.94 64.92 36.87 56.58 34.31 C 65.74 25.69 76.98 19.63 88.31 14.33 Z" />
<path fill="#002a45" opacity="1.00" d=" M 211.20 49.24 C 216.09 44.32 221.03 39.43 225.96 34.55 C 227.33 35.39 228.68 36.24 230.02 37.12 C 225.04 42.09 220.15 47.16 215.09 52.04 C 213.84 52.92 212.10 55.05 210.63 53.35 C 209.35 52.23 210.05 50.18 211.20 49.24 Z" />
<path fill="#002a45" opacity="1.00" d=" M 217.84 57.84 C 223.02 52.23 228.60 47.00 233.99 41.58 C 235.15 42.52 236.30 43.48 237.43 44.46 C 233.49 48.85 229.19 52.88 225.11 57.12 C 223.53 58.65 221.98 60.34 219.92 61.21 C 218.14 61.67 216.25 59.26 217.84 57.84 Z" />
<path fill="#002a45" opacity="1.00" d=" M 227.73 62.71 C 232.43 58.18 236.93 53.45 241.64 48.92 C 242.55 50.18 243.61 51.32 244.84 52.28 C 239.94 57.24 235.03 62.19 230.16 67.17 C 228.96 68.58 226.19 70.09 225.06 67.79 C 224.39 65.58 226.40 64.10 227.73 62.71 Z" />
<path fill="#002a45" opacity="1.00" d=" M 21.31 193.59 C -0.69 148.30 6.17 90.39 38.81 51.92 C 40.52 60.83 46.19 68.39 52.24 74.89 C 41.58 91.40 34.77 110.68 33.61 130.34 C 37.30 130.46 41.00 130.45 44.70 130.33 C 44.55 134.55 44.55 138.78 44.71 143.01 C 41.08 143.36 37.43 143.37 33.78 143.21 C 33.92 154.50 36.85 165.62 40.85 176.12 C 44.40 183.99 47.83 192.03 52.97 199.03 C 71.65 225.52 102.57 243.16 135.04 244.83 C 135.28 241.22 135.33 237.60 135.26 233.98 C 139.46 233.56 143.70 233.58 147.91 233.87 C 147.94 237.38 147.95 240.89 147.98 244.40 C 170.90 243.83 193.27 234.40 210.73 219.70 C 233.58 201.13 247.47 172.67 249.66 143.44 C 245.87 143.35 242.09 143.28 238.31 143.00 C 238.52 138.88 238.19 134.73 238.62 130.62 C 242.19 130.23 245.79 130.43 249.38 130.36 C 248.39 110.87 241.92 91.56 230.59 75.63 C 235.66 68.97 242.22 63.60 247.99 57.55 C 251.24 60.62 253.22 64.69 255.60 68.41 C 269.92 91.88 276.56 119.92 274.26 147.31 C 273.47 152.56 273.12 157.87 272.09 163.09 C 265.18 196.41 245.35 226.98 217.23 246.28 C 187.05 267.72 147.53 274.90 111.58 266.49 C 72.46 257.73 38.11 229.98 21.31 193.59 Z" />
</g>
<g id="#46d000ff">
<path fill="#46d000" opacity="1.00" d=" M 221.88 30.30 C 223.50 28.83 224.87 26.84 226.99 26.06 C 228.85 26.61 230.80 28.55 229.80 30.63 C 228.61 32.02 227.26 33.27 225.96 34.55 C 221.03 39.43 216.09 44.32 211.20 49.24 C 210.05 50.18 209.35 52.23 210.63 53.35 C 212.10 55.05 213.84 52.92 215.09 52.04 C 220.15 47.16 225.04 42.09 230.02 37.12 C 231.32 36.00 232.36 34.37 234.06 33.86 C 236.20 33.37 236.92 35.73 238.05 37.01 C 236.78 38.60 235.46 40.17 233.99 41.58 C 228.60 47.00 223.02 52.23 217.84 57.84 C 216.25 59.26 218.14 61.67 219.92 61.21 C 221.98 60.34 223.53 58.65 225.11 57.12 C 229.19 52.88 233.49 48.85 237.43 44.46 C 238.93 43.17 240.41 40.81 242.65 41.20 C 243.73 42.15 245.46 43.14 244.89 44.85 C 244.35 46.55 242.77 47.63 241.64 48.92 C 236.93 53.45 232.43 58.18 227.73 62.71 C 226.40 64.10 224.39 65.58 225.06 67.79 C 226.19 70.09 228.96 68.58 230.16 67.17 C 235.03 62.19 239.94 57.24 244.84 52.28 C 245.92 51.19 246.98 50.07 248.08 49.00 C 248.77 49.00 250.15 49.00 250.84 49.00 C 251.55 49.98 252.28 50.95 252.90 52.01 C 251.70 54.20 249.69 55.77 247.99 57.55 C 242.22 63.60 235.66 68.97 230.59 75.63 C 227.34 79.26 222.43 80.76 217.84 81.84 C 214.05 82.70 210.48 80.94 206.94 79.91 C 204.15 80.74 202.39 83.43 200.25 85.28 C 200.74 90.29 196.11 92.94 193.16 96.16 C 179.89 109.58 166.38 122.79 153.22 136.32 C 153.78 139.34 157.66 141.07 158.98 143.99 C 162.15 149.18 156.73 156.08 151.01 155.43 C 146.60 155.34 144.39 150.89 140.99 148.86 C 138.01 150.57 136.37 154.24 132.81 155.06 C 128.56 156.61 123.85 153.22 123.14 148.99 C 123.23 144.33 127.30 141.36 129.92 137.99 C 129.06 135.79 126.81 134.46 125.27 132.73 C 116.13 123.55 106.78 114.57 97.96 105.07 C 94.12 100.59 89.88 96.47 85.41 92.63 C 82.45 90.46 82.86 86.18 80.31 83.70 C 78.96 82.30 77.65 80.72 75.87 79.86 C 72.86 80.29 70.06 81.78 67.00 81.89 C 61.39 81.65 55.96 79.12 52.24 74.89 C 46.19 68.39 40.52 60.83 38.81 51.92 C 37.34 47.10 38.43 41.57 41.73 37.75 C 45.59 33.81 51.42 33.25 56.58 34.31 C 64.92 36.87 72.05 41.94 78.79 47.32 C 82.68 50.88 85.29 55.84 85.98 61.08 C 86.41 65.04 84.42 68.68 83.89 72.53 C 85.84 74.11 87.48 76.03 89.44 77.59 C 91.94 78.67 94.89 79.05 96.77 81.22 C 109.53 94.12 122.44 106.88 135.33 119.65 C 137.50 121.73 139.39 124.17 141.90 125.86 C 154.77 113.42 167.07 100.37 179.93 87.91 C 182.34 85.64 184.48 83.11 186.77 80.73 C 188.61 78.40 191.86 78.57 194.32 77.28 C 196.30 75.85 197.83 73.92 199.48 72.15 C 195.20 64.47 196.15 53.57 203.53 48.11 C 209.80 42.34 215.88 36.36 221.88 30.30 Z" />
</g>
</svg>
